<mxfile host="app.diagrams.net" modified="2022-02-17T13:18:29.995Z" agent="5.0 (Macintosh; Intel Mac OS X 10_15_7) AppleWebKit/537.36 (KHTML, like Gecko) Chrome/98.0.4758.80 Safari/537.36" etag="aAg9V5KI_jW4M2qxXFSW" version="16.5.6" type="github">
  <diagram name="Page-1" id="c37626ed-c26b-45fb-9056-f9ebc6bb27b6">
    <mxGraphModel dx="1527" dy="867" grid="0" gridSize="10" guides="1" tooltips="1" connect="1" arrows="1" fold="1" page="1" pageScale="1" pageWidth="1100" pageHeight="850" background="none" math="0" shadow="0">
      <root>
        <mxCell id="0" />
        <mxCell id="1" parent="0" />
        <mxCell id="sBmO86maGU4b0SfhbNvD-16" style="edgeStyle=none;rounded=0;orthogonalLoop=1;jettySize=auto;html=1;exitX=1;exitY=0.5;exitDx=0;exitDy=0;exitPerimeter=0;entryX=0;entryY=0.5;entryDx=0;entryDy=0;entryPerimeter=0;shape=link;width=0.5882352941176467;" edge="1" parent="1" source="sBmO86maGU4b0SfhbNvD-1" target="sBmO86maGU4b0SfhbNvD-9">
          <mxGeometry relative="1" as="geometry" />
        </mxCell>
        <mxCell id="sBmO86maGU4b0SfhbNvD-17" style="edgeStyle=none;shape=link;rounded=0;orthogonalLoop=1;jettySize=auto;html=1;exitX=0.5;exitY=1;exitDx=0;exitDy=0;exitPerimeter=0;width=-0.5882352941176467;" edge="1" parent="1" source="sBmO86maGU4b0SfhbNvD-1" target="sBmO86maGU4b0SfhbNvD-5">
          <mxGeometry relative="1" as="geometry" />
        </mxCell>
        <mxCell id="sBmO86maGU4b0SfhbNvD-1" value="" style="shape=mxgraph.cisco.routers.router;sketch=0;html=1;pointerEvents=1;dashed=0;fillColor=#036897;strokeColor=#ffffff;strokeWidth=2;verticalLabelPosition=bottom;verticalAlign=top;align=center;outlineConnect=0;" vertex="1" parent="1">
          <mxGeometry x="390" y="160" width="70" height="53" as="geometry" />
        </mxCell>
        <mxCell id="sBmO86maGU4b0SfhbNvD-37" style="edgeStyle=none;shape=link;rounded=0;orthogonalLoop=1;jettySize=auto;html=1;exitX=0.5;exitY=0;exitDx=0;exitDy=0;exitPerimeter=0;" edge="1" parent="1" source="sBmO86maGU4b0SfhbNvD-4">
          <mxGeometry relative="1" as="geometry">
            <mxPoint x="270" y="440" as="targetPoint" />
          </mxGeometry>
        </mxCell>
        <mxCell id="sBmO86maGU4b0SfhbNvD-4" value="" style="shape=mxgraph.cisco.computers_and_peripherals.ibm_mini_as400;sketch=0;html=1;pointerEvents=1;dashed=0;fillColor=#036897;strokeColor=#ffffff;strokeWidth=2;verticalLabelPosition=bottom;verticalAlign=top;align=center;outlineConnect=0;" vertex="1" parent="1">
          <mxGeometry x="180" y="530" width="100" height="32" as="geometry" />
        </mxCell>
        <mxCell id="sBmO86maGU4b0SfhbNvD-18" style="edgeStyle=none;shape=link;rounded=0;orthogonalLoop=1;jettySize=auto;html=1;exitX=0.5;exitY=0;exitDx=0;exitDy=0;exitPerimeter=0;entryX=0.5;entryY=1;entryDx=0;entryDy=0;entryPerimeter=0;width=0.5882352941176467;" edge="1" parent="1" source="sBmO86maGU4b0SfhbNvD-5" target="sBmO86maGU4b0SfhbNvD-9">
          <mxGeometry relative="1" as="geometry" />
        </mxCell>
        <mxCell id="sBmO86maGU4b0SfhbNvD-26" style="edgeStyle=none;shape=link;rounded=0;orthogonalLoop=1;jettySize=auto;html=1;exitX=0.5;exitY=1;exitDx=0;exitDy=0;exitPerimeter=0;entryX=0.5;entryY=0;entryDx=0;entryDy=0;entryPerimeter=0;width=0.5882352941176467;" edge="1" parent="1" source="sBmO86maGU4b0SfhbNvD-5" target="sBmO86maGU4b0SfhbNvD-21">
          <mxGeometry relative="1" as="geometry" />
        </mxCell>
        <mxCell id="sBmO86maGU4b0SfhbNvD-5" value="" style="shape=mxgraph.cisco.switches.atm_switch;sketch=0;html=1;pointerEvents=1;dashed=0;fillColor=#036897;strokeColor=#ffffff;strokeWidth=2;verticalLabelPosition=bottom;verticalAlign=top;align=center;outlineConnect=0;" vertex="1" parent="1">
          <mxGeometry x="385" y="300" width="80" height="30" as="geometry" />
        </mxCell>
        <mxCell id="sBmO86maGU4b0SfhbNvD-19" style="edgeStyle=none;shape=link;rounded=0;orthogonalLoop=1;jettySize=auto;html=1;exitX=0.5;exitY=0;exitDx=0;exitDy=0;exitPerimeter=0;entryX=0.5;entryY=1;entryDx=0;entryDy=0;entryPerimeter=0;width=-0.5882352941176467;" edge="1" parent="1" source="sBmO86maGU4b0SfhbNvD-6" target="sBmO86maGU4b0SfhbNvD-9">
          <mxGeometry relative="1" as="geometry" />
        </mxCell>
        <mxCell id="sBmO86maGU4b0SfhbNvD-20" style="edgeStyle=none;shape=link;rounded=0;orthogonalLoop=1;jettySize=auto;html=1;exitX=0.5;exitY=0;exitDx=0;exitDy=0;exitPerimeter=0;entryX=0.5;entryY=1;entryDx=0;entryDy=0;entryPerimeter=0;width=0.5882352941176467;" edge="1" parent="1" source="sBmO86maGU4b0SfhbNvD-6" target="sBmO86maGU4b0SfhbNvD-1">
          <mxGeometry relative="1" as="geometry" />
        </mxCell>
        <mxCell id="sBmO86maGU4b0SfhbNvD-6" value="" style="shape=mxgraph.cisco.switches.atm_switch;sketch=0;html=1;pointerEvents=1;dashed=0;fillColor=#036897;strokeColor=#ffffff;strokeWidth=2;verticalLabelPosition=bottom;verticalAlign=top;align=center;outlineConnect=0;" vertex="1" parent="1">
          <mxGeometry x="555" y="300" width="80" height="30" as="geometry" />
        </mxCell>
        <mxCell id="sBmO86maGU4b0SfhbNvD-9" value="" style="shape=mxgraph.cisco.routers.router;sketch=0;html=1;pointerEvents=1;dashed=0;fillColor=#036897;strokeColor=#ffffff;strokeWidth=2;verticalLabelPosition=bottom;verticalAlign=top;align=center;outlineConnect=0;" vertex="1" parent="1">
          <mxGeometry x="560" y="160" width="70" height="53" as="geometry" />
        </mxCell>
        <mxCell id="sBmO86maGU4b0SfhbNvD-27" style="edgeStyle=none;shape=link;rounded=0;orthogonalLoop=1;jettySize=auto;html=1;exitX=0.5;exitY=0;exitDx=0;exitDy=0;exitPerimeter=0;entryX=0.5;entryY=1;entryDx=0;entryDy=0;entryPerimeter=0;width=-0.5882352941176467;" edge="1" parent="1" source="sBmO86maGU4b0SfhbNvD-21" target="sBmO86maGU4b0SfhbNvD-6">
          <mxGeometry relative="1" as="geometry" />
        </mxCell>
        <mxCell id="sBmO86maGU4b0SfhbNvD-21" value="" style="shape=mxgraph.cisco.switches.atm_switch;sketch=0;html=1;pointerEvents=1;dashed=0;fillColor=#036897;strokeColor=#ffffff;strokeWidth=2;verticalLabelPosition=bottom;verticalAlign=top;align=center;outlineConnect=0;" vertex="1" parent="1">
          <mxGeometry x="230" y="410" width="80" height="30" as="geometry" />
        </mxCell>
        <mxCell id="sBmO86maGU4b0SfhbNvD-28" style="edgeStyle=none;shape=link;rounded=0;orthogonalLoop=1;jettySize=auto;html=1;exitX=0.5;exitY=0;exitDx=0;exitDy=0;exitPerimeter=0;entryX=0.5;entryY=1;entryDx=0;entryDy=0;entryPerimeter=0;width=0.5882352941176467;" edge="1" parent="1" source="sBmO86maGU4b0SfhbNvD-22" target="sBmO86maGU4b0SfhbNvD-5">
          <mxGeometry relative="1" as="geometry" />
        </mxCell>
        <mxCell id="sBmO86maGU4b0SfhbNvD-29" style="edgeStyle=none;shape=link;rounded=0;orthogonalLoop=1;jettySize=auto;html=1;exitX=0.5;exitY=0;exitDx=0;exitDy=0;exitPerimeter=0;entryX=0.5;entryY=1;entryDx=0;entryDy=0;entryPerimeter=0;width=-0.5882352941176467;" edge="1" parent="1" source="sBmO86maGU4b0SfhbNvD-22" target="sBmO86maGU4b0SfhbNvD-6">
          <mxGeometry relative="1" as="geometry" />
        </mxCell>
        <mxCell id="sBmO86maGU4b0SfhbNvD-22" value="" style="shape=mxgraph.cisco.switches.atm_switch;sketch=0;html=1;pointerEvents=1;dashed=0;fillColor=#036897;strokeColor=#ffffff;strokeWidth=2;verticalLabelPosition=bottom;verticalAlign=top;align=center;outlineConnect=0;" vertex="1" parent="1">
          <mxGeometry x="385" y="410" width="80" height="30" as="geometry" />
        </mxCell>
        <mxCell id="sBmO86maGU4b0SfhbNvD-30" style="edgeStyle=none;shape=link;rounded=0;orthogonalLoop=1;jettySize=auto;html=1;exitX=0.5;exitY=0;exitDx=0;exitDy=0;exitPerimeter=0;width=0.5882352941176467;" edge="1" parent="1" source="sBmO86maGU4b0SfhbNvD-23">
          <mxGeometry relative="1" as="geometry">
            <mxPoint x="595.3529411764707" y="330" as="targetPoint" />
          </mxGeometry>
        </mxCell>
        <mxCell id="sBmO86maGU4b0SfhbNvD-31" style="edgeStyle=none;shape=link;rounded=0;orthogonalLoop=1;jettySize=auto;html=1;exitX=0.5;exitY=0;exitDx=0;exitDy=0;exitPerimeter=0;width=-0.5882352941176467;" edge="1" parent="1" source="sBmO86maGU4b0SfhbNvD-23">
          <mxGeometry relative="1" as="geometry">
            <mxPoint x="420" y="330" as="targetPoint" />
          </mxGeometry>
        </mxCell>
        <mxCell id="sBmO86maGU4b0SfhbNvD-23" value="" style="shape=mxgraph.cisco.switches.atm_switch;sketch=0;html=1;pointerEvents=1;dashed=0;fillColor=#036897;strokeColor=#ffffff;strokeWidth=2;verticalLabelPosition=bottom;verticalAlign=top;align=center;outlineConnect=0;" vertex="1" parent="1">
          <mxGeometry x="555" y="410" width="80" height="30" as="geometry" />
        </mxCell>
        <mxCell id="sBmO86maGU4b0SfhbNvD-32" style="edgeStyle=none;shape=link;rounded=0;orthogonalLoop=1;jettySize=auto;html=1;exitX=0.5;exitY=0;exitDx=0;exitDy=0;exitPerimeter=0;width=-0.5882352941176467;" edge="1" parent="1" source="sBmO86maGU4b0SfhbNvD-24">
          <mxGeometry relative="1" as="geometry">
            <mxPoint x="590" y="330" as="targetPoint" />
          </mxGeometry>
        </mxCell>
        <mxCell id="sBmO86maGU4b0SfhbNvD-33" style="edgeStyle=none;shape=link;rounded=0;orthogonalLoop=1;jettySize=auto;html=1;exitX=0.5;exitY=0;exitDx=0;exitDy=0;exitPerimeter=0;width=0.5882352941176467;" edge="1" parent="1" source="sBmO86maGU4b0SfhbNvD-24">
          <mxGeometry relative="1" as="geometry">
            <mxPoint x="420" y="330" as="targetPoint" />
          </mxGeometry>
        </mxCell>
        <mxCell id="sBmO86maGU4b0SfhbNvD-24" value="" style="shape=mxgraph.cisco.switches.atm_switch;sketch=0;html=1;pointerEvents=1;dashed=0;fillColor=#036897;strokeColor=#ffffff;strokeWidth=2;verticalLabelPosition=bottom;verticalAlign=top;align=center;outlineConnect=0;" vertex="1" parent="1">
          <mxGeometry x="730" y="410" width="80" height="30" as="geometry" />
        </mxCell>
        <mxCell id="sBmO86maGU4b0SfhbNvD-38" style="edgeStyle=none;shape=link;rounded=0;orthogonalLoop=1;jettySize=auto;html=1;exitX=0.5;exitY=0;exitDx=0;exitDy=0;exitPerimeter=0;entryX=0.5;entryY=1;entryDx=0;entryDy=0;entryPerimeter=0;" edge="1" parent="1" source="sBmO86maGU4b0SfhbNvD-34" target="sBmO86maGU4b0SfhbNvD-21">
          <mxGeometry relative="1" as="geometry" />
        </mxCell>
        <mxCell id="sBmO86maGU4b0SfhbNvD-34" value="" style="shape=mxgraph.cisco.computers_and_peripherals.ibm_mini_as400;sketch=0;html=1;pointerEvents=1;dashed=0;fillColor=#036897;strokeColor=#ffffff;strokeWidth=2;verticalLabelPosition=bottom;verticalAlign=top;align=center;outlineConnect=0;" vertex="1" parent="1">
          <mxGeometry x="290" y="530" width="100" height="32" as="geometry" />
        </mxCell>
        <mxCell id="sBmO86maGU4b0SfhbNvD-39" style="edgeStyle=none;shape=link;rounded=0;orthogonalLoop=1;jettySize=auto;html=1;exitX=0.5;exitY=0;exitDx=0;exitDy=0;exitPerimeter=0;entryX=0.5;entryY=1;entryDx=0;entryDy=0;entryPerimeter=0;" edge="1" parent="1" source="sBmO86maGU4b0SfhbNvD-35" target="sBmO86maGU4b0SfhbNvD-21">
          <mxGeometry relative="1" as="geometry" />
        </mxCell>
        <mxCell id="sBmO86maGU4b0SfhbNvD-35" value="" style="shape=mxgraph.cisco.computers_and_peripherals.ibm_mini_as400;sketch=0;html=1;pointerEvents=1;dashed=0;fillColor=#036897;strokeColor=#ffffff;strokeWidth=2;verticalLabelPosition=bottom;verticalAlign=top;align=center;outlineConnect=0;" vertex="1" parent="1">
          <mxGeometry x="400" y="530" width="100" height="32" as="geometry" />
        </mxCell>
        <mxCell id="sBmO86maGU4b0SfhbNvD-40" style="edgeStyle=none;shape=link;rounded=0;orthogonalLoop=1;jettySize=auto;html=1;exitX=0.5;exitY=0;exitDx=0;exitDy=0;exitPerimeter=0;entryX=0.5;entryY=1;entryDx=0;entryDy=0;entryPerimeter=0;" edge="1" parent="1" source="sBmO86maGU4b0SfhbNvD-36" target="sBmO86maGU4b0SfhbNvD-22">
          <mxGeometry relative="1" as="geometry" />
        </mxCell>
        <mxCell id="sBmO86maGU4b0SfhbNvD-36" value="" style="shape=mxgraph.cisco.computers_and_peripherals.ibm_mini_as400;sketch=0;html=1;pointerEvents=1;dashed=0;fillColor=#036897;strokeColor=#ffffff;strokeWidth=2;verticalLabelPosition=bottom;verticalAlign=top;align=center;outlineConnect=0;" vertex="1" parent="1">
          <mxGeometry x="560" y="530" width="100" height="32" as="geometry" />
        </mxCell>
        <mxCell id="sBmO86maGU4b0SfhbNvD-41" value="路由器" style="text;html=1;resizable=0;autosize=1;align=center;verticalAlign=middle;points=[];fillColor=none;strokeColor=none;rounded=0;fontSize=16;" vertex="1" parent="1">
          <mxGeometry x="60" y="170" width="60" height="20" as="geometry" />
        </mxCell>
        <mxCell id="sBmO86maGU4b0SfhbNvD-42" value="spine交换机" style="text;html=1;resizable=0;autosize=1;align=center;verticalAlign=middle;points=[];fillColor=none;strokeColor=none;rounded=0;fontSize=16;" vertex="1" parent="1">
          <mxGeometry x="40" y="300" width="100" height="20" as="geometry" />
        </mxCell>
        <mxCell id="sBmO86maGU4b0SfhbNvD-43" value="leaf交换机" style="text;html=1;resizable=0;autosize=1;align=center;verticalAlign=middle;points=[];fillColor=none;strokeColor=none;rounded=0;fontSize=16;" vertex="1" parent="1">
          <mxGeometry x="45" y="415" width="90" height="20" as="geometry" />
        </mxCell>
        <mxCell id="sBmO86maGU4b0SfhbNvD-44" value="服务器、存储设备" style="text;html=1;resizable=0;autosize=1;align=center;verticalAlign=middle;points=[];fillColor=none;strokeColor=none;rounded=0;fontSize=16;" vertex="1" parent="1">
          <mxGeometry x="20" y="530" width="140" height="20" as="geometry" />
        </mxCell>
        <mxCell id="sBmO86maGU4b0SfhbNvD-45" value="" style="endArrow=none;html=1;rounded=0;fontSize=16;shape=link;width=142.94117647058823;dashed=1;" edge="1" parent="1">
          <mxGeometry width="50" height="50" relative="1" as="geometry">
            <mxPoint x="110" y="309.41" as="sourcePoint" />
            <mxPoint x="830" y="309.41" as="targetPoint" />
          </mxGeometry>
        </mxCell>
        <mxCell id="sBmO86maGU4b0SfhbNvD-46" value="" style="endArrow=none;html=1;rounded=0;fontSize=16;shape=link;width=94.70588235294117;dashed=1;" edge="1" parent="1">
          <mxGeometry width="50" height="50" relative="1" as="geometry">
            <mxPoint x="110" y="529.9999999999999" as="sourcePoint" />
            <mxPoint x="830" y="529.9999999999999" as="targetPoint" />
          </mxGeometry>
        </mxCell>
      </root>
    </mxGraphModel>
  </diagram>
</mxfile>
